<svg width="364" height="79" viewBox="0 0 364 79" fill="none" xmlns="http://www.w3.org/2000/svg">
<rect x="0.442871" y="29.9624" width="28" height="16" rx="8" transform="rotate(-30 0.442871 29.9624)" fill="#1f1f1f"/>
<rect y="49.1812" width="32" height="16" rx="8" transform="rotate(-30 0 49.1812)" fill="#1f1f1f"/>
<path d="M66.4329 60.64C80.8969 60.64 86.5289 54.112 86.5289 46.752C86.5289 41.248 83.7129 35.872 73.2169 34.336L59.7769 32.352C57.4729 32.032 56.7049 31.392 56.7049 30.048C56.7049 28.192 58.0489 27.36 64.1929 27.36C72.2569 27.36 73.6009 28.384 73.6009 31.456V32.416H85.6329V32.032C85.6329 22.432 79.1049 16.48 65.4729 16.48C49.9849 16.48 44.6729 23.648 44.6729 30.496C44.6729 37.408 48.7049 41.696 56.7049 42.784L70.1449 44.576C73.6649 45.024 74.4969 45.664 74.4969 47.2C74.4969 49.12 73.7289 49.696 66.4329 49.696C58.3689 49.696 57.3449 48.928 57.3449 46.048V44.704H45.3129V45.088C45.3129 55.968 53.3129 60.64 66.4329 60.64ZM124.199 60V46.432L143.847 17.12H128.871L122.407 27.296L118.759 33.312H117.927L114.279 27.296L107.815 17.12H92.9029L112.167 46.368V60H124.199ZM163.215 60V43.232L162.703 35.04H163.535L168.975 43.488L181.647 60H194.447V17.12H182.415V33.696L182.991 43.04H182.159L175.887 33.184L163.983 17.12H151.183V60H163.215ZM227.748 60.64C242.148 60.64 250.788 53.792 250.788 42.336V41.248H237.348V42.336C237.348 47.2 235.044 49.12 227.94 49.12C219.236 49.12 216.868 47.072 216.868 38.56C216.868 30.048 219.236 28 227.94 28C235.044 28 237.348 29.92 237.348 34.784V35.872H250.788V34.784C250.788 23.328 242.148 16.48 227.748 16.48C212.836 16.48 204.068 25.184 204.068 38.56C204.068 51.936 212.836 60.64 227.748 60.64ZM272.39 60V45.408H277.318C281.99 45.408 283.27 46.304 284.806 49.504L289.926 60H303.814L298.502 49.248C296.902 45.984 295.494 43.872 291.078 42.72V42.08C299.27 41.056 302.662 37.024 302.662 30.24C302.662 21.856 296.71 17.12 285.382 17.12H260.358V60H272.39ZM272.39 27.936H285.254C288.774 27.936 290.054 28.768 290.054 32.16C290.054 35.808 288.774 36.448 285.254 36.448H272.39V27.936ZM323.077 60L326.405 52.064H346.757L350.021 60H363.845L345.285 17.12H328.069L309.573 60H323.077ZM333.445 35.232L336.197 28H337.029L339.845 35.232L342.341 41.248H330.949L333.445 35.232Z" fill="#1f1f1f"/>
</svg>
